<svg width="16" height="16" viewBox="0 0 16 16" fill="none" xmlns="http://www.w3.org/2000/svg">
<g id="error">
<path id="Caminho 6303" fill-rule="evenodd" clip-rule="evenodd" d="M8 14.5C9.28558 14.5 10.5423 14.1188 11.6112 13.4046C12.6801 12.6903 13.5132 11.6752 14.0052 10.4874C14.4972 9.29973 14.6259 7.99279 14.3751 6.73192C14.1243 5.47104 13.5052 4.31285 12.5962 3.40381C11.6872 2.49477 10.529 1.8757 9.26809 1.6249C8.00721 1.37409 6.70028 1.50282 5.51256 1.99479C4.32484 2.48676 3.30968 3.31988 2.59545 4.3888C1.88122 5.45772 1.5 6.71443 1.5 8C1.5 9.72391 2.18482 11.3772 3.40381 12.5962C4.62279 13.8152 6.27609 14.5 8 14.5ZM8 16C9.58225 16 11.129 15.5308 12.4446 14.6518C13.7602 13.7727 14.7855 12.5233 15.391 11.0615C15.9965 9.59966 16.155 7.99113 15.8463 6.43928C15.5376 4.88743 14.7757 3.46197 13.6569 2.34315C12.538 1.22433 11.1126 0.462403 9.56072 0.153721C8.00887 -0.15496 6.40034 0.00346625 4.93853 0.608967C3.47672 1.21447 2.22729 2.23985 1.34824 3.55544C0.469192 4.87103 0 6.41775 0 8C0 10.1217 0.842855 12.1566 2.34315 13.6569C3.84344 15.1571 5.87827 16 8 16Z" fill="#A8ADB7"/>
</g>
</svg>
