<svg width="32" height="33" viewBox="0 0 32 33" fill="none" xmlns="http://www.w3.org/2000/svg">
<g id="default">
<g clip-path="url(#clip0_1186_8806)">
<path id="Caminho 6304" d="M21.2579 16.1814C21.3081 16.3028 21.334 16.4329 21.3339 16.5643C21.334 16.8293 21.2289 17.0835 21.0417 17.271C20.8545 17.4586 20.6005 17.5642 20.3355 17.5646H11.6673C11.5359 17.5646 11.4059 17.5387 11.2845 17.4885C11.1631 17.4382 11.0529 17.3645 10.96 17.2716C10.8671 17.1787 10.7934 17.0685 10.7431 16.9471C10.6929 16.8257 10.667 16.6956 10.667 16.5643C10.667 16.4329 10.6929 16.3028 10.7431 16.1815C10.7934 16.0601 10.8671 15.9498 10.96 15.857C11.0529 15.7641 11.1631 15.6904 11.2845 15.6401C11.4059 15.5898 11.5359 15.564 11.6673 15.564H20.3336C20.465 15.5639 20.5951 15.5898 20.7165 15.64C20.8379 15.6903 20.9481 15.764 21.041 15.8569C21.1339 15.9498 21.2076 16.06 21.2579 16.1814Z" fill="#00A296"/>
</g>
<rect x="0.5" y="1" width="31" height="31" rx="15.5" stroke="#00A296"/>
</g>
<defs>
<clipPath id="clip0_1186_8806">
<rect y="0.5" width="32" height="32" rx="16" fill="white"/>
</clipPath>
</defs>
</svg>
